<?xml version="1.0" encoding="UTF-8"?>
<svg width="700pt" height="700pt" version="1.1" viewBox="0 0 700 700" xmlns="http://www.w3.org/2000/svg">
 <path d="m423.95 183.88c0 18.215 14.758 32.941 32.941 32.941h131.77c18.148-0.097656 32.84-14.793 32.941-32.941v-131.77c0-18.184-14.727-32.941-32.941-32.941-18.184 0-32.941 14.758-32.941 32.941v56.586c-81.762-92.5-216.86-115.67-324.78-55.652-107.91 59.984-159.55 186.96-124.11 305.25 35.441 118.29 148.37 195.96 271.5 186.74 123.1-9.2578 223.3-102.91 240.69-225.15 1.3164-9.4531-1.5859-19.039-7.9141-26.219-6.3242-7.2148-15.441-11.262-25.027-11.195-16.305 0.097657-30.09 12.137-32.426 28.246-12.914 92.07-88.098 162.8-180.79 170.08-92.66 7.2773-177.93-50.867-205.04-139.78-27.113-88.906 11.258-184.74 92.195-230.43 80.969-45.656 182.81-28.934 244.87 40.242h-47.996c-8.7617 0-17.098 3.4922-23.289 9.6836-6.1953 6.2266-9.6836 14.625-9.6523 23.355z" fill-rule="evenodd"/>
</svg>
